<?xml version="1.0" encoding="iso-8859-1"?>
<!-- Generator: Adobe Illustrator 16.0.0, SVG Export Plug-In . SVG Version: 6.00 Build 0)  -->
<!DOCTYPE svg PUBLIC "-//W3C//DTD SVG 1.1//EN" "http://www.w3.org/Graphics/SVG/1.1/DTD/svg11.dtd">
<svg version="1.1" id="Capa_1" xmlns="http://www.w3.org/2000/svg" xmlns:xlink="http://www.w3.org/1999/xlink" x="0px" y="0px"
	 width="477.033px" height="477.033px" viewBox="0 0 477.033 477.033" style="enable-background:new 0 0 477.033 477.033;"
	 xml:space="preserve">
<g>
	<g>
		<path d="M109.913,202.052L218.052,55.098c0.267,0.062,0.524,0.126,0.793,0.189c4.735,1.164,9.763,2.661,15.014,4.411
			c10.494,3.534,21.849,8.381,33.277,14.93c11.42,6.557,22.924,14.787,33.672,24.809c10.759,9.995,20.784,21.733,29.354,34.926
			c8.583,13.179,15.716,27.791,20.877,43.288c3.734,11.16,6.416,22.773,8.025,34.582h49.634
			c-2.078-17.579-6.441-34.872-12.854-51.073c-7.686-19.466-18.313-37.333-30.882-52.622
			c-12.559-15.308-27.016-28.033-42.018-37.854c-14.995-9.862-30.536-16.774-45.263-21.203c-14.748-4.435-28.678-6.358-40.885-6.755
			c-6.108-0.218-11.804,0.016-17.011,0.386c-1.304,0.112-2.576,0.214-3.819,0.347c-1.243,0.131-2.457,0.304-3.638,0.449
			c-1.182,0.141-2.332,0.309-3.451,0.49l-23.013-13.846l5.88,12.671L74.87,202.052H109.913z"/>
		<polygon points="427.742,200.994 427.742,228.707 83.892,228.707 74.569,216.097 0,216.108 25.497,238.927 477.033,238.552 		"/>
	</g>
	<g>
		<path d="M109.913,274.981l108.138,146.953c0.267-0.062,0.524-0.126,0.793-0.188c4.735-1.164,9.763-2.661,15.014-4.411
			c10.493-3.534,21.849-8.381,33.278-14.931c11.418-6.557,22.923-14.786,33.671-24.809c10.759-9.995,20.784-21.733,29.354-34.926
			c8.583-13.179,15.716-27.791,20.877-43.288c3.734-11.16,6.416-22.773,8.025-34.582h49.634
			c-2.078,17.579-6.441,34.872-12.854,51.072c-7.685,19.467-18.312,37.334-30.881,52.623
			c-12.559,15.308-27.016,28.032-42.018,37.854c-14.995,9.862-30.536,16.774-45.262,21.203c-14.748,4.435-28.68,6.358-40.886,6.755
			c-6.108,0.218-11.804-0.016-17.011-0.386c-1.304-0.112-2.576-0.214-3.819-0.347c-1.243-0.132-2.457-0.305-3.638-0.449
			c-1.182-0.142-2.332-0.31-3.451-0.49l-23.015,13.847l5.88-12.671L74.87,274.981H109.913z"/>
		<polygon points="427.742,276.038 427.742,248.325 83.892,248.325 74.569,260.936 0,260.925 25.497,238.106 477.033,238.481 		"/>
	</g>
</g>
<g>
</g>
<g>
</g>
<g>
</g>
<g>
</g>
<g>
</g>
<g>
</g>
<g>
</g>
<g>
</g>
<g>
</g>
<g>
</g>
<g>
</g>
<g>
</g>
<g>
</g>
<g>
</g>
<g>
</g>
</svg>
